<?xml version="1.0" encoding="utf-8"?>
<!-- Generator: Adobe Illustrator 27.9.0, SVG Export Plug-In . SVG Version: 6.00 Build 0)  -->
<svg version="1.1" id="Layer_1" xmlns="http://www.w3.org/2000/svg" xmlns:xlink="http://www.w3.org/1999/xlink" x="0px" y="0px"
	 viewBox="0 0 500 500" style="enable-background:new 0 0 500 500;" xml:space="preserve">
<style type="text/css">
	.st0{fill:none;stroke:#4F5F73;stroke-width:62;stroke-miterlimit:10;}
	.st1{fill:#4F5F73;}
</style>
<g>
	<path class="st0" d="M120.11,218.45"/>
</g>
<g>
	<path class="st1" d="M125.19,183.37c21.89-47.52,69.96-80.59,125.62-80.59s103.73,33.07,125.62,80.59h55.52
		c-9.07-28.63-24.93-54.87-46.78-76.72C349.28,70.76,301.56,51,250.81,51s-98.46,19.76-134.35,55.65
		c-21.85,21.85-37.71,48.09-46.78,76.72H125.19z"/>
	<path class="st1" d="M376.43,298.63c-21.89,47.52-69.96,80.59-125.62,80.59s-103.73-33.07-125.62-80.59H69.68
		c9.07,28.64,24.93,54.87,46.78,76.72c35.89,35.89,83.6,55.65,134.35,55.65s98.46-19.76,134.35-55.65
		c21.85-21.85,37.71-48.09,46.78-76.72H376.43z"/>
</g>
<path class="st1" d="M204.97,325.7c3.04-7.82-0.82-16.62-8.64-19.66L77.59,259.79l-0.21,0.54l-0.54-0.21L30.59,378.86
	c-3.04,7.82,0.82,16.62,8.64,19.66h0c7.82,3.04,16.62-0.82,19.66-8.64l29.92-76.83c3.04-7.82,11.85-11.68,19.66-8.64l76.83,29.92
	C193.12,337.38,201.93,333.51,204.97,325.7L204.97,325.7z"/>
<path class="st1" d="M296.09,159.75c-2.81,7.9,1.31,16.59,9.21,19.4l120.04,42.75l0.2-0.55l0.55,0.2l42.75-120.04
	c2.81-7.9-1.31-16.59-9.21-19.4l0,0c-7.9-2.81-16.59,1.31-19.4,9.21l-27.66,77.67c-2.81,7.9-11.5,12.03-19.4,9.21l-77.67-27.66
	C307.59,147.73,298.91,151.85,296.09,159.75L296.09,159.75z"/>
</svg>
