<?xml version="1.0" encoding="utf-8"?>
<!-- Generator: Adobe Illustrator 27.8.1, SVG Export Plug-In . SVG Version: 6.00 Build 0)  -->
<svg version="1.1" id="Layer_1" xmlns="http://www.w3.org/2000/svg" xmlns:xlink="http://www.w3.org/1999/xlink" x="0px" y="0px"
	 viewBox="0 0 500 500" style="enable-background:new 0 0 500 500;" xml:space="preserve">
<style type="text/css">
	.st0{fill:#333F4E;}
	.st1{fill:none;stroke:#333F4E;stroke-width:6;stroke-miterlimit:10;}
	.st2{fill:#3E4B5C;}
	.st3{fill:none;stroke:#505F73;stroke-width:2;stroke-miterlimit:10;}
	.st4{fill:none;stroke:#505F73;stroke-miterlimit:10;}
</style>
<g>
	<path class="st0" d="M-22.99-154.46h5.44v-29.78l-6.81-3.84v-0.06l19.41-8.07v41.75h5.44v0.92h-23.48V-154.46z"/>
	<path class="st0" d="M31.59-167.23v13.69H1.35v-0.06l2.92-3.72c10.14-12.88,13.74-20.27,13.74-28.29c0-6.07-1.55-9.22-4.29-9.22
		c-0.4,0-0.8,0.06-1.15,0.17l-5.96,16.55H6.56l-4.75-14.26c4.07-2.18,8.65-3.55,13.63-3.55c10.37,0,15.75,3.72,15.75,10.48
		c0,6.47-4.81,11.51-20.73,21.59h19.99v-3.38H31.59z"/>
</g>
<g>
	<path class="st0" d="M225.83,89.22c5.38-0.4,6.36-2.35,7.85-7.85c2.06-8.13,3.55-14.15,4.75-18.61c0.86-3.55,1.37-6.41,1.15-7.5
		c-1.83,0.29-4.12,0.06-5.67-0.46l0.52-1.15c3.49,0.11,8.07-0.74,11.91-3.67l0.8,0.69c-0.69,1.72-1.6,5.55-2.69,9.79
		c-1.6,6.13-3.15,12.43-5.33,20.85c-1.37,5.67-1.26,7.56,3.78,7.9l-0.29,1.15c-2.92-0.11-6.18-0.17-8.65-0.17
		c-2.46,0-5.67,0-8.48,0.17L225.83,89.22z"/>
	<path class="st0" d="M244.39,88.13c3.67-2.92,8.42-6.41,12.48-10.48c4.98-4.93,8.99-10.65,9.11-17.35
		c-0.06-3.72-1.83-6.07-5.21-6.07c-3.32-0.06-6.3,2-8.7,4.52l-0.69-0.8c1.26-1.95,2.63-3.78,4.01-5.38
		c2.58-1.95,5.04-2.69,8.02-2.69c4.81,0,8.59,3.32,8.47,8.99c-0.06,7.33-4.58,12.37-9.91,17.18c-3.89,3.61-8.76,7.22-11.85,9.39
		h6.81c8.3,0.06,8.99-0.46,11.8-6.7l1.15,0.34l-1.66,5.9c-0.69,2.4-1.83,4.64-2.92,5.38c-4.18-0.11-6.93-0.17-10.94-0.17
		c-4.18,0-6.47,0-10.65,0.17L244.39,88.13z"/>
</g>
<g>
	<path class="st0" d="M328.53,115.84c5.38-0.4,6.36-2.35,7.84-7.85c2.06-8.13,3.55-14.15,4.75-18.61c0.86-3.55,1.38-6.41,1.15-7.5
		c-1.83,0.29-4.12,0.06-5.67-0.46l0.52-1.15c3.49,0.11,8.07-0.74,11.91-3.67l0.8,0.69c-0.69,1.72-1.6,5.55-2.69,9.79
		c-1.6,6.13-3.15,12.43-5.33,20.85c-1.38,5.67-1.26,7.56,3.78,7.9l-0.29,1.15c-2.92-0.11-6.18-0.17-8.65-0.17s-5.67,0-8.47,0.17
		L328.53,115.84z"/>
</g>
<g>
	<path class="st0" d="M389.94,186.34c3.67-2.92,8.42-6.41,12.48-10.48c4.98-4.93,8.99-10.65,9.11-17.35
		c-0.06-3.72-1.83-6.07-5.21-6.07c-3.32-0.06-6.3,2-8.71,4.52l-0.69-0.8c1.26-1.95,2.63-3.78,4.01-5.38
		c2.58-1.95,5.04-2.69,8.02-2.69c4.81,0,8.59,3.32,8.48,8.99c-0.06,7.33-4.58,12.37-9.91,17.18c-3.89,3.61-8.76,7.22-11.85,9.39
		h6.82c8.3,0.06,8.99-0.46,11.8-6.7l1.14,0.34l-1.66,5.9c-0.69,2.4-1.83,4.64-2.92,5.38c-4.18-0.11-6.93-0.17-10.94-0.17
		c-4.18,0-6.47,0-10.65,0.17L389.94,186.34z"/>
</g>
<g>
	<path class="st0" d="M420.24,269.58c-1.26-1.6-2.41-3.61-3.38-5.61l0.86-0.8c2.69,3.15,4.92,4.12,8.13,4.18
		c4.98,0,8.93-3.21,9.05-9.28c0.17-4.87-3.32-7.04-8.82-6.99c0,0,0.86-1.72,1.66-1.78c6.3-0.69,10.19-3.84,10.25-10.02
		c0.06-3.44-1.89-5.44-4.98-5.44c-3.32,0-6.36,2.06-8.82,4.58l-0.69-0.86c1.03-1.66,2.35-3.38,3.67-4.98
		c2.29-1.66,5.1-2.63,8.02-2.63c5.1,0,8.59,3.15,8.53,8.02c-0.12,6.3-4.64,9.56-9.85,11.22c4.47,0.86,7.1,4.41,6.93,8.99
		c-0.17,8.02-6.7,12.94-14.49,12.94C424.19,271.13,422.13,270.67,420.24,269.58z"/>
</g>
<g>
	<path class="st0" d="M397.11,352.89c4.18-0.4,5.9-1.55,7.39-7.27c0.46-1.66,1.26-4.7,1.26-4.7h-14.72l0.69-2.41l24.34-24.74
		l1.89,0.63c-0.17,0.4-1.03,3.15-1.43,4.81c-1.66,6.47-4.7,18.15-4.7,18.15h4.7l0.29,0.86l-2.06,2.69h-3.78c0,0-0.74,2.92-1.14,4.64
		c-1.26,5.38-0.69,7.04,3.32,7.33l-0.29,1.15c-2.86-0.17-5.38-0.17-7.79-0.17c-2.52,0-5.27,0.06-8.25,0.17L397.11,352.89z
		 M406.62,337.37l4.01-15.58l-15.4,15.58H406.62z"/>
</g>
<g>
	<path class="st0" d="M324.8,422.54c-1.2-1.6-2.41-3.61-3.32-5.55l0.86-0.86c2.63,3.15,4.98,4.12,8.19,4.12
		c5.67,0,9.39-4.58,9.51-11.28c0.06-4.12-1.78-6.99-6.36-6.99c-1.72,0-3.38,0.63-4.58,1.32l-0.97-1.09l5.79-18.38h12.25
		c2.81,0,3.21-0.34,3.89-1.2h1.03l-1.38,3.32c-0.46,1.15-1.03,2.23-1.95,2.86H334.2l-3.66,11.8c1.26-0.74,3.49-1.26,5.61-1.26
		c6.64,0,9.79,4.41,9.68,9.62c-0.06,9.22-7.1,15.06-14.89,15.06C328.7,424.03,326.75,423.63,324.8,422.54z"/>
</g>
<g>
	<path class="st0" d="M236.93,435.77c0.23-13.86,8.93-29.38,22.28-29.49c1.95,0.29,3.84,0.69,5.78,1.32l-0.46,1.03
		c-10.42-0.92-16.55,5.5-19.99,16.95c2.18-1.09,5.1-2.29,7.62-2.86c6.07-0.06,8.25,4.07,8.19,8.59
		c-0.11,8.82-6.64,16.49-14.66,16.21C239.51,447.28,236.82,442.3,236.93,435.77z M254.34,432.22c0.06-3.61-1.03-6.58-4.81-6.7
		c-1.55,0.23-3.89,0.92-5.38,1.49c-0.92,3.38-1.89,7.79-1.89,12.03c-0.06,3.38,0.74,6.53,3.55,6.81
		C251.02,446.42,254.34,437.72,254.34,432.22z"/>
</g>
<g>
	<path class="st0" d="M163.98,403.59c4.3-6.47,9.22-9.96,15.69-14.37h-11.45c-5.78,0-6.24,0.29-9.39,5.55h-1.15
		c0,0,1.2-3.67,1.72-4.92c0.86-2.52,1.95-4.58,3.49-5.5c3.38,0.06,6.41,0.12,10.37,0.12c4.07,0,7.1,0,11-0.17l0.46,1.14
		c-7.04,6.76-11.4,13-15.98,20.39c-3.55,5.67-7.1,12.48-8.76,18.9h-1.49C158.08,417.39,159.8,410,163.98,403.59z"/>
</g>
<g>
	<path class="st0" d="M81.36,345.87c-0.06-3.32,1.32-6.18,3.49-8.65c1.72-1.49,3.78-2.81,5.84-4.12c-2.35-2.18-3.61-4.98-3.61-7.85
		c0-7.56,6.47-12.43,13.57-12.25c5.33,0.17,8.93,3.55,8.99,8.19c0,3.21-1.66,6.01-3.78,8.07c-1.66,1.37-3.84,2.75-5.55,3.72
		c2.92,2.18,4.75,5.21,4.75,8.88c0.06,7.85-6.87,12.48-13.97,12.37C85.59,354.18,81.3,351.2,81.36,345.87z M99.91,343.98
		c-0.11-4.81-3.72-6.7-8.25-10.08c-3.78,3.55-6.18,7.04-6.24,11.62c0.06,3.89,2.23,6.87,6.07,6.99
		C96.13,352.63,99.85,349.25,99.91,343.98z M105.64,320.9c0-3.32-1.95-6.07-5.33-6.19c-4.64-0.11-8.07,3.32-8.07,8.59
		c0.11,4.24,3.44,6.7,6.99,8.93C102.6,329.49,105.64,325.54,105.64,320.9z"/>
</g>
<g>
	<path class="st0" d="M46.76,269.24l0.34-1.09c1.15,0.29,2.29,0.52,3.67,0.52c7.62,0,13.29-7.1,16.21-16.84
		c-2.18,1.14-5.1,2.35-7.56,2.92c-6.13,0.06-8.25-4.12-8.25-8.59c0.06-8.65,6.7-16.55,14.72-16.26c6.41,0.23,8.88,5.21,8.76,11.68
		c-0.29,13.86-8.93,29.55-22.28,29.61C50.31,270.78,48.25,270.04,46.76,269.24z M67.38,250.4c1.03-3.84,1.89-8.19,1.95-11.85
		c0.06-3.38-0.8-6.64-3.61-6.99c-5.04-0.63-8.48,8.19-8.53,13.69c-0.06,3.61,1.03,6.59,4.81,6.7
		C63.48,251.77,65.94,251.03,67.38,250.4z"/>
</g>
<g>
	<path class="st0" d="M71.51,188.03c5.38-0.4,6.36-2.35,7.85-7.85c2.06-8.13,3.55-14.15,4.75-18.61c0.86-3.55,1.37-6.41,1.15-7.5
		c-1.83,0.29-4.12,0.06-5.67-0.46l0.52-1.15c3.49,0.11,8.07-0.74,11.91-3.67l0.8,0.69c-0.69,1.72-1.6,5.55-2.69,9.79
		c-1.6,6.13-3.15,12.43-5.33,20.85c-1.37,5.67-1.26,7.56,3.78,7.9l-0.29,1.15c-2.92-0.11-6.18-0.17-8.65-0.17
		c-2.46,0-5.67,0-8.48,0.17L71.51,188.03z"/>
	<path class="st0" d="M95.04,176.92c0-5.78,1.83-12.77,4.81-18.1c3.38-6.07,8.3-10.25,13.69-10.19c5.9,0.11,8.99,5.21,8.93,13.06
		c0,6.36-2.12,13.57-5.27,18.84c-3.44,5.61-8.19,9.45-13.23,9.39C98.14,189.8,95.04,184.65,95.04,176.92z M112.74,177.89
		c2.52-6.59,4.29-15.69,4.29-20.79c0-4.24-1.03-6.87-3.67-6.87c-3.21-0.06-6.18,4.01-8.48,9.96c-2.69,6.81-4.52,16.21-4.52,21.25
		c0.06,4.35,1.2,6.76,3.84,6.76C107.53,188.26,110.45,183.9,112.74,177.89z"/>
</g>
<g>
	<path class="st0" d="M139.21,115.84c5.38-0.4,6.36-2.35,7.85-7.85c2.06-8.13,3.55-14.15,4.75-18.61c0.86-3.55,1.37-6.41,1.15-7.5
		c-1.83,0.29-4.12,0.06-5.67-0.46l0.52-1.15c3.49,0.11,8.07-0.74,11.91-3.67l0.8,0.69c-0.69,1.72-1.6,5.55-2.69,9.79
		c-1.6,6.13-3.15,12.43-5.33,20.85c-1.37,5.67-1.26,7.56,3.78,7.9l-0.29,1.15c-2.92-0.11-6.18-0.17-8.65-0.17
		c-2.46,0-5.67,0-8.48,0.17L139.21,115.84z"/>
	<path class="st0" d="M157.65,115.84c5.38-0.4,6.36-2.35,7.85-7.85c2.06-8.13,3.55-14.15,4.75-18.61c0.86-3.55,1.37-6.41,1.15-7.5
		c-1.83,0.29-4.12,0.06-5.67-0.46l0.52-1.15c3.49,0.11,8.07-0.74,11.91-3.67l0.8,0.69c-0.69,1.72-1.6,5.55-2.69,9.79
		c-1.6,6.13-3.15,12.43-5.33,20.85c-1.37,5.67-1.26,7.56,3.78,7.9l-0.29,1.15c-2.92-0.11-6.18-0.17-8.65-0.17
		c-2.46,0-5.67,0-8.48,0.17L157.65,115.84z"/>
</g>
<circle class="st1" cx="250.74" cy="250" r="240.13"/>
<rect x="245.24" y="142.98" class="st2" width="8.88" height="108.39"/>
<rect x="245.24" y="95.5" class="st2" width="8.88" height="155.88"/>
<rect x="248.71" y="52.47" class="st2" width="1.93" height="198.9"/>
<circle class="st0" cx="250" cy="250" r="14.44"/>
<line class="st3" x1="250" y1="27.78" x2="250" y2="41.67"/>
<line class="st4" x1="250" y1="27.78" x2="250" y2="35.23"/>
<line class="st4" x1="220.99" y1="29.68" x2="221.97" y2="37.07"/>
<line class="st4" x1="192.48" y1="35.35" x2="194.41" y2="42.55"/>
<line class="st4" x1="164.96" y1="44.69" x2="167.81" y2="51.58"/>
<line class="st4" x1="138.89" y1="57.55" x2="142.61" y2="64"/>
<line class="st4" x1="114.72" y1="73.7" x2="119.26" y2="79.61"/>
<line class="st4" x1="92.86" y1="92.86" x2="98.13" y2="98.13"/>
<line class="st4" x1="73.7" y1="114.72" x2="79.61" y2="119.26"/>
<line class="st4" x1="57.55" y1="138.89" x2="64" y2="142.61"/>
<line class="st4" x1="44.69" y1="164.96" x2="51.58" y2="167.81"/>
<line class="st4" x1="35.35" y1="192.48" x2="42.55" y2="194.41"/>
<line class="st4" x1="29.68" y1="220.99" x2="37.07" y2="221.97"/>
<line class="st4" x1="27.78" y1="250" x2="35.23" y2="250"/>
<line class="st4" x1="29.68" y1="279.01" x2="37.07" y2="278.03"/>
<line class="st4" x1="35.35" y1="307.52" x2="42.55" y2="305.59"/>
<line class="st4" x1="44.69" y1="335.04" x2="51.58" y2="332.19"/>
<line class="st4" x1="57.55" y1="361.11" x2="64" y2="357.39"/>
<line class="st4" x1="73.7" y1="385.28" x2="79.61" y2="380.74"/>
<line class="st4" x1="92.86" y1="407.14" x2="98.13" y2="401.87"/>
<line class="st4" x1="114.72" y1="426.3" x2="119.26" y2="420.39"/>
<line class="st4" x1="138.89" y1="442.45" x2="142.61" y2="436"/>
<line class="st4" x1="164.96" y1="455.31" x2="167.81" y2="448.42"/>
<line class="st4" x1="192.48" y1="464.65" x2="194.41" y2="457.45"/>
<line class="st4" x1="220.99" y1="470.32" x2="221.97" y2="462.93"/>
<line class="st4" x1="250" y1="472.22" x2="250" y2="464.77"/>
<line class="st4" x1="279.01" y1="470.32" x2="278.03" y2="462.93"/>
<line class="st4" x1="307.52" y1="464.65" x2="305.59" y2="457.45"/>
<line class="st4" x1="335.04" y1="455.31" x2="332.19" y2="448.42"/>
<line class="st4" x1="361.11" y1="442.45" x2="357.39" y2="436"/>
<line class="st4" x1="385.28" y1="426.3" x2="380.74" y2="420.39"/>
<line class="st4" x1="407.14" y1="407.14" x2="401.87" y2="401.87"/>
<line class="st4" x1="426.3" y1="385.28" x2="420.39" y2="380.74"/>
<line class="st4" x1="442.45" y1="361.11" x2="436" y2="357.39"/>
<line class="st4" x1="455.31" y1="335.04" x2="448.42" y2="332.19"/>
<line class="st4" x1="464.65" y1="307.52" x2="457.45" y2="305.59"/>
<line class="st4" x1="470.32" y1="279.01" x2="462.93" y2="278.03"/>
<line class="st4" x1="472.22" y1="250" x2="464.77" y2="250"/>
<line class="st4" x1="470.32" y1="220.99" x2="462.93" y2="221.97"/>
<line class="st4" x1="464.65" y1="192.48" x2="457.45" y2="194.41"/>
<line class="st4" x1="455.31" y1="164.96" x2="448.42" y2="167.81"/>
<line class="st4" x1="442.45" y1="138.89" x2="436" y2="142.61"/>
<line class="st4" x1="426.3" y1="114.72" x2="420.39" y2="119.26"/>
<line class="st4" x1="407.14" y1="92.86" x2="401.87" y2="98.13"/>
<line class="st4" x1="385.28" y1="73.7" x2="380.74" y2="79.61"/>
<line class="st4" x1="361.11" y1="57.55" x2="357.39" y2="64"/>
<line class="st4" x1="335.04" y1="44.69" x2="332.19" y2="51.58"/>
<line class="st4" x1="307.52" y1="35.35" x2="305.59" y2="42.55"/>
<line class="st4" x1="279.01" y1="29.68" x2="278.03" y2="37.07"/>
<line class="st3" x1="138.89" y1="57.55" x2="145.84" y2="69.58"/>
<line class="st3" x1="57.55" y1="138.89" x2="69.58" y2="145.84"/>
<line class="st3" x1="27.78" y1="250" x2="41.67" y2="250"/>
<line class="st3" x1="57.55" y1="361.11" x2="69.58" y2="354.16"/>
<line class="st3" x1="138.89" y1="442.45" x2="145.84" y2="430.42"/>
<line class="st3" x1="250" y1="472.22" x2="250" y2="458.33"/>
<line class="st3" x1="361.11" y1="442.45" x2="354.16" y2="430.42"/>
<line class="st3" x1="442.45" y1="361.11" x2="430.42" y2="354.16"/>
<line class="st3" x1="472.22" y1="250" x2="458.33" y2="250"/>
<line class="st3" x1="442.45" y1="138.89" x2="430.42" y2="145.84"/>
<line class="st3" x1="361.11" y1="57.55" x2="354.16" y2="69.58"/>
</svg>
